<svg width="222" height="319" viewBox="0 0 222 319" fill="none" xmlns="http://www.w3.org/2000/svg">
<rect x="2.5" y="2.5" width="217" height="314" stroke="white" stroke-width="5"/>
<path d="M142.156 150.088V142.971H149.255V117.353H157V74.6557H156.355H150.546V73.9441V67.5395H135.057V59H88.5887V67.5395H74.3901V75.3673H66V117.353H73.0993V142.971H80.844V158.627H88.5887V167.166H133.766" stroke="white" stroke-width="6"/>
<path d="M66 86.96H75.4138V97.0555H94.2414V107.151H129.543V97.0555H147.586V87.8013H157" stroke="white" stroke-width="6"/>
<path d="M88.3281 110.035V126.621H96.1484V143.207" stroke="white" stroke-width="6"/>
<path d="M27.1136 273H34.1364V255.386H43.6818C43.8409 255.386 43.9773 255.386 44.1364 255.386L53.5909 273H61.5909L51.2727 254.159C56.9773 252.045 59.8182 247.295 59.8182 241.045C59.8182 232.477 54.5 226.455 43.7045 226.455H27.1136V273ZM34.1364 249.341V232.477H42.9545C49.8864 232.477 52.75 235.773 52.75 241.045C52.75 246.295 49.8864 249.341 43.0455 249.341H34.1364ZM83.0973 273.773C88.87 273.773 92.12 270.841 93.4155 268.227H93.6882V273H100.325V249.818C100.325 239.659 92.3245 237.636 86.7791 237.636C80.4609 237.636 74.6427 240.182 72.37 246.545L78.7564 248C79.7564 245.523 82.3018 243.136 86.87 243.136C91.2564 243.136 93.5064 245.432 93.5064 249.386V249.545C93.5064 252.023 90.9609 251.977 84.6882 252.705C78.0745 253.477 71.3018 255.205 71.3018 263.136C71.3018 270 76.4609 273.773 83.0973 273.773ZM84.5745 268.318C80.7336 268.318 77.9609 266.591 77.9609 263.227C77.9609 259.591 81.1882 258.295 85.12 257.773C87.3245 257.477 92.5518 256.886 93.5291 255.909V260.409C93.5291 264.545 90.2336 268.318 84.5745 268.318ZM121.291 252.273C121.291 246.705 124.7 243.523 129.427 243.523C134.041 243.523 136.837 246.545 136.837 251.614V273H143.632V250.795C143.632 242.159 138.882 237.636 131.746 237.636C126.496 237.636 123.064 240.068 121.45 243.773H121.018V238.091H114.496V273H121.291V252.273ZM168.025 273.773C173.798 273.773 177.048 270.841 178.343 268.227H178.616V273H185.252V249.818C185.252 239.659 177.252 237.636 171.707 237.636C165.388 237.636 159.57 240.182 157.298 246.545L163.684 248C164.684 245.523 167.229 243.136 171.798 243.136C176.184 243.136 178.434 245.432 178.434 249.386V249.545C178.434 252.023 175.888 251.977 169.616 252.705C163.002 253.477 156.229 255.205 156.229 263.136C156.229 270 161.388 273.773 168.025 273.773ZM169.502 268.318C165.661 268.318 162.888 266.591 162.888 263.227C162.888 259.591 166.116 258.295 170.048 257.773C172.252 257.477 177.479 256.886 178.457 255.909V260.409C178.457 264.545 175.161 268.318 169.502 268.318Z" fill="white"/>
<path d="M171.844 215.909V229H175.321V221.381H175.423L178.338 228.898H180.435L183.349 221.432H183.452V229H186.929V215.909H182.506L179.463 223.324H179.31L176.267 215.909H171.844ZM202.275 220.818C201.994 217.571 199.616 215.73 196.317 215.73C192.789 215.73 190.002 218.082 190.002 222.455C190.002 226.808 192.712 229.179 196.317 229.179C200.153 229.179 202.096 226.52 202.275 224.295L198.67 224.27C198.491 225.388 197.698 226.085 196.394 226.085C194.662 226.085 193.658 224.858 193.658 222.455C193.658 220.179 194.63 218.824 196.42 218.824C197.788 218.824 198.567 219.629 198.67 220.818H202.275Z" fill="white"/>
</svg>
